<mxfile host="app.diagrams.net" modified="2021-10-19T15:40:48.086Z" agent="5.0 (Windows NT 10.0; Win64; x64) AppleWebKit/537.36 (KHTML, like Gecko) Chrome/94.0.4606.61 Safari/537.36" etag="mmg6qe-m4l2mcTsbrPDT" version="15.5.6" type="github">
  <diagram id="gNsyJym1J3xTwun6gARg" name="Page-1">
    <mxGraphModel dx="1422" dy="762" grid="1" gridSize="10" guides="1" tooltips="1" connect="1" arrows="1" fold="1" page="1" pageScale="1" pageWidth="827" pageHeight="1169" math="0" shadow="0">
      <root>
        <mxCell id="0" />
        <mxCell id="1" parent="0" />
        <mxCell id="BnOOSWI3Pid4ku8t8Snk-14" style="edgeStyle=orthogonalEdgeStyle;rounded=0;orthogonalLoop=1;jettySize=auto;html=1;exitX=0;exitY=0.5;exitDx=0;exitDy=0;entryX=1.007;entryY=0.411;entryDx=0;entryDy=0;entryPerimeter=0;fontSize=9;" edge="1" parent="1" source="BnOOSWI3Pid4ku8t8Snk-1" target="BnOOSWI3Pid4ku8t8Snk-9">
          <mxGeometry relative="1" as="geometry" />
        </mxCell>
        <mxCell id="BnOOSWI3Pid4ku8t8Snk-1" value="E-Mail mit Token wird versendet, wenn der Benutzer im System hinterlegt wurde. Kein Fehler an Client." style="shape=process;whiteSpace=wrap;html=1;backgroundOutline=1;align=left;" vertex="1" parent="1">
          <mxGeometry x="640" y="260" width="130" height="160" as="geometry" />
        </mxCell>
        <mxCell id="BnOOSWI3Pid4ku8t8Snk-2" value="" style="group" vertex="1" connectable="0" parent="1">
          <mxGeometry x="80" y="520" width="240" height="360" as="geometry" />
        </mxCell>
        <mxCell id="XTCqMoGkB20KvRFNDshd-8" value="" style="rounded=0;whiteSpace=wrap;html=1;" parent="BnOOSWI3Pid4ku8t8Snk-2" vertex="1">
          <mxGeometry width="240" height="360" as="geometry" />
        </mxCell>
        <mxCell id="XTCqMoGkB20KvRFNDshd-9" value="peter@gmx.net" style="rounded=1;whiteSpace=wrap;html=1;align=center;" parent="BnOOSWI3Pid4ku8t8Snk-2" vertex="1">
          <mxGeometry x="37.83304347826087" y="151.54" width="174.78260869565216" height="27.69" as="geometry" />
        </mxCell>
        <mxCell id="XTCqMoGkB20KvRFNDshd-10" value="Anmelden" style="rounded=1;whiteSpace=wrap;html=1;fillColor=#dae8fc;strokeColor=#6c8ebf;" parent="BnOOSWI3Pid4ku8t8Snk-2" vertex="1">
          <mxGeometry x="37.82304347826087" y="240" width="174.78260869565216" height="27.69" as="geometry" />
        </mxCell>
        <mxCell id="XTCqMoGkB20KvRFNDshd-11" value="" style="shape=image;verticalLabelPosition=bottom;labelBackgroundColor=#ffffff;verticalAlign=top;aspect=fixed;imageAspect=0;image=data:image/png,iVBORw0KGgoAAAANSUhEUgAAADIAAAAyCAYAAAAeP4ixAAAACXBIWXMAAA7DAAAOwwHHb6hkAAAK8UlEQVR4nO1aC1hUZRp+zzDchzuMoKIIIheDtNQANW95DXvaatsum1napqXP1q7tulZb2na1wnU3t6ioNXF1t9tqppmpecFENBAoRAEVQe4wgNxmmNn3/w8Dg5K7C8OW+/Q9z4E5c86Z873f5f3e/8xo8fPNp6DR+sBswhVpGi3QbqrjX4ueOx7ftz+9NhWIE/+iTWbjSs2IMAVtBKJY+NL8ffvSR7OI0lL4QvN9e9JHU37MyA/MREb+P+zyQFrJZG3tl77v6AA4c1OUnq8zs1qbjaRFi2AU1UQBO3DHmbfU2r8ALgUibiyc5xYV5otJ0XqEB3pA56JFE98rKGvE/rxKZJ2somMaFZDF5loCUMjqM+OCER/ujwFeLjARWElNE74+XYtD+dUw8DXcnfoZCLOgc3XEnxbHYd7EEGg0PUf9g/RiLH4rA5W1zYCrVgXTZER4sBc2LInHuDC/Hq+rrG9B8u4CPLHpuJqZ78pqn4CYzfxsDbYun4zJkQHyrX0nKvHJkXOoaGiFr5sTZowOwqzYINw6LhjhQZ4Y/8RONIoM0h93Rnkbrw0foIOx3YwN+08jk1kQdBLi74644X5IiAjAlJEDwBPsWmLdgVww4sFbRnaCWPfFKTz850NqrYvMsESSPsjB7+dfi5U8L5bR/y3/P5lyVB6fOyFEgrBYLLgvOR2p//y2q5f4nuiPGGZKlCicLtNjfQIiGpR9sHBSqNytZgYe25ilNrbOBi8juer9bMybMBRheh3uZfk982Eu2qqbEDPYU54iemLLsVLAw1l+ZqcRTPapajUotr1lVyAmMwYymlGDVGcOFVSjSdT/xU0pgLHO935bIYEE+7ohgtdkkwQMzape09LRe5iddQQsS8hF29UPVmB2BNEdCGt6kI8rs6/W7enKC2qWejQFReJ4hwX7uiJbq2BLRgle+Fks/VXw2r3XIPHqIGxKO4MvcstRUt4ogwUSSf/SL312E3XbYU2tPcyPLhxotpkvbkJEc8tjFu9mT627/1p4kxhmjwqS24UWEw6SNP5BptuUdhaNzKjMtH1Lq0triX4UjSp9/Td9qKDrXOt/4dzfSBAHOGfumzQMN48ZhFEhPnBjP0yPDZTb8puice+6r3Awp5wRcLQXDhutpRGlb5RlIczrcjeh454sEeu5Bka8U63pnFHMslu14WusIgmMCvHG3NEDcXvCUFw12Ath7MOPH5uIiEe3oaaxzV5lZqN+OaXPknkaOJnFFI8a6KlObhHti9PD/Wg2uMiEuLhQ9IuDjUOiRMXGHsskS2XmVuDZ93OwbtF1+MWUUPgxc+OpGLZyzkBrlwlvkxFGpoYOpRfWYBoH1thQXwxjNIsEXXq6dF1yoQ1eZKup0QNkRnKKDSgqqVcdb+vQZoKZBDBBsy6OssHNNc1I2VeEB6eGyY/Rib6ylqSxo98cHdBL61S/Zhl1RvCV7SfopF6yV+qiONz9xwMoKm3ouKmCQH83vPVQHHzcHWVGknbkwyIEIoddLIfdSJbPzqzzqK6injJ1OGhRnVxw/bDOfsotrVcdJwi9n5tUArV1Lb0GYwWi1gWZZjtZJSk6H7+aE0HR54dv1iQi7dtKVHFAerEkxvI9IVVMvHHKl0V4Z+dJlYGYqZfuvBozYwJhoObKIIPlnW9gH7SybbQYH6XHOGZZ2EdHS3A8v1ICHEPJsut3k6k12zH+6V0oFEFz+u/BdJcoosgoAH/9dgZyi+vwy9kRiB3ijal07mI7QSf/8GGOKtfFdXT2PZaOO52YQOem8ZppPVyXevAMFr2ZrpYeKX4IMyyIxQuO0Hu7oJClyoN9BCKMohGuClJYMin7TmMk9dRQCj4dHfTXsUlH+GPONYNkCeUnJeJdZiVpWx7yi2qRujUPqbsLEUrwY0J9KCo95DwxchCerrqAtBNVyBE956hRo87yFUN0wVtH0ExQh3m8m6TpExBhol9Io6JncgtqkJtfpfYIp806HhpIB5fMHIFlcyOx6IbhWEAmWs9sCFAZBFRIxVsoSkdrE1mRNVH/QvJLEanex8TPTWEg5Am63jNYV7P3ZBqlxwiVkoFWpGTgnb2FePqnMbgzYQjunxwqtzI27Pm6ZuzILsPj72WqK0LB8BZB5R1CURGaTCWPzqD10bo3+39qHXPiJGn37pf34TVO7IdnhGMWtVUQ9ZrY2totXfQq06HA16lORqzO6MXdy0igXljfHgfJbDkgLacCadnl8AlwxzC9O1wJsriaylnjQQrmOWYnLA7diNURqaxWDe7KXoJPzs3m3UnRIjPaZnRmyGoiCGRGuRYSJqrju1eU9ngcpHRqptr6VtSK9bi4t8UT88M+RYJ3Pp7Jn4cHB32GzWVxCHSqxWK+LmwIxero17Hp/Hi8V5zI/mno/DgIyUMQ3iQZPYex4B9B/1VWxS0UdHfBaecHdCJiYjO5Yd7gT7F2xNuoMnpg4ZQ9qDe64I7snyDAyYBPr3kOORMfwlHDULwe+QbazI7YXDpdzRDXNEMCdXjprlEs1UCp6YS1GM1yDbRiUxYy86svFpz99ICOTR3rUYQLZhfEZ7yISd4ncMAQhtLmIOQxqJEHX0WEUxkKTIHIjXsEPiIbggyYBQ8y164npnDJ7AEzWXMXScNE+p5ISTSbPZgQ7o/Y5TtwVqxvugZnfzygs0ggy/Lvw9LBO3BLQBr+cvJ+3lTQcauk9JKGQJS5j8WKwS/CSACvi9KSixwjbqb8FyBaOOmnPb8XaennZF8MG+6LwytvQABLbcHUUDz1zrFuCsD+QNjY9wRvwQPBu6Rvu2tjScE1fG2UZQOWyNol12JabAhufXICfjP0Q3wzYSmSi6dhTfaNVN1e8mNOMeJpYs3i5SIbvYhiNp0z7UYuCSKDPNXmtzH7AmF0NZo2vDriTeyvj8F1h5JwwhAMP18LDjw5G0v+egzXRwZg6fRwJK7+EnnVwYhJS8bKEeuxIuTvWJPLPlHUKm8Vilg8mbT6y+Ha1q62soOidCM4+wMRWAim2eyMgc61iNKdRWZjMAw1LfiMtS7EobAZz+3B54fOidUbbtanIZ7MVk1SkH3SQUcaRbmEajUd+z2tkO0LRDHDQgaan/so7hy4HxuvTsJ5kw57y8fgkeR0lNa24DjF6OeHiznNfTHdLw1JUe/iqcLb8FFZvHCVU6l3C3n79whLa3dFPHvjKtyuP4Cr3M9gr2mmFIovWR+TuvlxAeaFAMd6NLU7IOlMIlemA3htRa9v2w+spdbvs8PXM74W7KwejdWxL+KgIRxbCNDCgzfp9yDR/xjWnp2DRpMze+ptPJC1Ql7r0NHEDj08c77csf75fkTTSqcTMD/oS3yT8CjOt3pgWchW3Jb1iByQH496BXkNeiyM34OSFg+Vfh1a5aVNrepDvlaym3yuZnWaksX6CKpZLKkt3Uuwf4A4tOAwaXdO5uOY4puLtQV34I2YF/B8+EY0trtgW0UMEtNfwR1DtiKHZJBjiKYnjXKl+fL2fGw/XsZ+alZBWBueum7p+mNyaV1Q0ajKlH4HImqLjmUZIpEl5ghJILlkFlmsnL5ZsKZ4LsG2YdM59o7GpIIQ14hHUlwaHyLDyRWk7ZKX++XUceViojs6XPIYqR+/DFXUcpElY8ERQxQmfLW645Cly3nruTYOw/U7FJNYqGl7XAb/r74MFdE2qpvte3a8wY9fT//ATLn8mv0Kst6t2X+AJoA4yZ8KXanW9TMnpQJmk/GK/pkTUPcv9klDPOCbykcAAAAASUVORK5CYII=;" parent="BnOOSWI3Pid4ku8t8Snk-2" vertex="1">
          <mxGeometry x="93.91304347826086" y="41.53846153846154" width="50" height="50" as="geometry" />
        </mxCell>
        <mxCell id="XTCqMoGkB20KvRFNDshd-12" value="Anmelden:" style="text;html=1;strokeColor=none;fillColor=none;align=left;verticalAlign=middle;whiteSpace=wrap;rounded=0;" parent="BnOOSWI3Pid4ku8t8Snk-2" vertex="1">
          <mxGeometry x="39.133043478260866" y="110.00153846153844" width="182.6086956521739" height="41.53846153846154" as="geometry" />
        </mxCell>
        <mxCell id="BnOOSWI3Pid4ku8t8Snk-7" value="TR7PXLAM" style="rounded=1;whiteSpace=wrap;html=1;align=center;" vertex="1" parent="BnOOSWI3Pid4ku8t8Snk-2">
          <mxGeometry x="39.133043478260866" y="200" width="174.78260869565216" height="27.69" as="geometry" />
        </mxCell>
        <mxCell id="BnOOSWI3Pid4ku8t8Snk-8" value="&lt;font style=&quot;font-size: 9px&quot;&gt;Neuen Token anfordern&lt;/font&gt;" style="text;html=1;strokeColor=none;fillColor=none;align=center;verticalAlign=middle;whiteSpace=wrap;rounded=0;fontSize=6;" vertex="1" parent="BnOOSWI3Pid4ku8t8Snk-2">
          <mxGeometry x="36.52434782608695" y="280" width="177.3913043478261" height="30" as="geometry" />
        </mxCell>
        <mxCell id="BnOOSWI3Pid4ku8t8Snk-3" value="" style="group" vertex="1" connectable="0" parent="1">
          <mxGeometry x="80" y="40" width="240" height="260" as="geometry" />
        </mxCell>
        <mxCell id="XTCqMoGkB20KvRFNDshd-2" value="" style="rounded=0;whiteSpace=wrap;html=1;" parent="BnOOSWI3Pid4ku8t8Snk-3" vertex="1">
          <mxGeometry width="240" height="260" as="geometry" />
        </mxCell>
        <mxCell id="XTCqMoGkB20KvRFNDshd-4" value="peter@gmx.net" style="rounded=1;whiteSpace=wrap;html=1;" parent="BnOOSWI3Pid4ku8t8Snk-3" vertex="1">
          <mxGeometry x="30.869999999999997" y="140" width="176.09" height="20" as="geometry" />
        </mxCell>
        <mxCell id="XTCqMoGkB20KvRFNDshd-5" value="Token anfordern" style="rounded=1;whiteSpace=wrap;html=1;fillColor=#dae8fc;strokeColor=#6c8ebf;" parent="BnOOSWI3Pid4ku8t8Snk-3" vertex="1">
          <mxGeometry x="30.869999999999997" y="170" width="176.09" height="20" as="geometry" />
        </mxCell>
        <mxCell id="XTCqMoGkB20KvRFNDshd-6" value="" style="shape=image;verticalLabelPosition=bottom;labelBackgroundColor=#ffffff;verticalAlign=top;aspect=fixed;imageAspect=0;image=data:image/png,iVBORw0KGgoAAAANSUhEUgAAADIAAAAyCAYAAAAeP4ixAAAACXBIWXMAAA7DAAAOwwHHb6hkAAAK8UlEQVR4nO1aC1hUZRp+zzDchzuMoKIIIheDtNQANW95DXvaatsum1napqXP1q7tulZb2na1wnU3t6ioNXF1t9tqppmpecFENBAoRAEVQe4wgNxmmNn3/w8Dg5K7C8OW+/Q9z4E5c86Z873f5f3e/8xo8fPNp6DR+sBswhVpGi3QbqrjX4ueOx7ftz+9NhWIE/+iTWbjSs2IMAVtBKJY+NL8ffvSR7OI0lL4QvN9e9JHU37MyA/MREb+P+zyQFrJZG3tl77v6AA4c1OUnq8zs1qbjaRFi2AU1UQBO3DHmbfU2r8ALgUibiyc5xYV5otJ0XqEB3pA56JFE98rKGvE/rxKZJ2somMaFZDF5loCUMjqM+OCER/ujwFeLjARWElNE74+XYtD+dUw8DXcnfoZCLOgc3XEnxbHYd7EEGg0PUf9g/RiLH4rA5W1zYCrVgXTZER4sBc2LInHuDC/Hq+rrG9B8u4CPLHpuJqZ78pqn4CYzfxsDbYun4zJkQHyrX0nKvHJkXOoaGiFr5sTZowOwqzYINw6LhjhQZ4Y/8RONIoM0h93Rnkbrw0foIOx3YwN+08jk1kQdBLi74644X5IiAjAlJEDwBPsWmLdgVww4sFbRnaCWPfFKTz850NqrYvMsESSPsjB7+dfi5U8L5bR/y3/P5lyVB6fOyFEgrBYLLgvOR2p//y2q5f4nuiPGGZKlCicLtNjfQIiGpR9sHBSqNytZgYe25ilNrbOBi8juer9bMybMBRheh3uZfk982Eu2qqbEDPYU54iemLLsVLAw1l+ZqcRTPapajUotr1lVyAmMwYymlGDVGcOFVSjSdT/xU0pgLHO935bIYEE+7ohgtdkkwQMzape09LRe5iddQQsS8hF29UPVmB2BNEdCGt6kI8rs6/W7enKC2qWejQFReJ4hwX7uiJbq2BLRgle+Fks/VXw2r3XIPHqIGxKO4MvcstRUt4ogwUSSf/SL312E3XbYU2tPcyPLhxotpkvbkJEc8tjFu9mT627/1p4kxhmjwqS24UWEw6SNP5BptuUdhaNzKjMtH1Lq0triX4UjSp9/Td9qKDrXOt/4dzfSBAHOGfumzQMN48ZhFEhPnBjP0yPDZTb8puice+6r3Awp5wRcLQXDhutpRGlb5RlIczrcjeh454sEeu5Bka8U63pnFHMslu14WusIgmMCvHG3NEDcXvCUFw12Ath7MOPH5uIiEe3oaaxzV5lZqN+OaXPknkaOJnFFI8a6KlObhHti9PD/Wg2uMiEuLhQ9IuDjUOiRMXGHsskS2XmVuDZ93OwbtF1+MWUUPgxc+OpGLZyzkBrlwlvkxFGpoYOpRfWYBoH1thQXwxjNIsEXXq6dF1yoQ1eZKup0QNkRnKKDSgqqVcdb+vQZoKZBDBBsy6OssHNNc1I2VeEB6eGyY/Rib6ylqSxo98cHdBL61S/Zhl1RvCV7SfopF6yV+qiONz9xwMoKm3ouKmCQH83vPVQHHzcHWVGknbkwyIEIoddLIfdSJbPzqzzqK6injJ1OGhRnVxw/bDOfsotrVcdJwi9n5tUArV1Lb0GYwWi1gWZZjtZJSk6H7+aE0HR54dv1iQi7dtKVHFAerEkxvI9IVVMvHHKl0V4Z+dJlYGYqZfuvBozYwJhoObKIIPlnW9gH7SybbQYH6XHOGZZ2EdHS3A8v1ICHEPJsut3k6k12zH+6V0oFEFz+u/BdJcoosgoAH/9dgZyi+vwy9kRiB3ijal07mI7QSf/8GGOKtfFdXT2PZaOO52YQOem8ZppPVyXevAMFr2ZrpYeKX4IMyyIxQuO0Hu7oJClyoN9BCKMohGuClJYMin7TmMk9dRQCj4dHfTXsUlH+GPONYNkCeUnJeJdZiVpWx7yi2qRujUPqbsLEUrwY0J9KCo95DwxchCerrqAtBNVyBE956hRo87yFUN0wVtH0ExQh3m8m6TpExBhol9Io6JncgtqkJtfpfYIp806HhpIB5fMHIFlcyOx6IbhWEAmWs9sCFAZBFRIxVsoSkdrE1mRNVH/QvJLEanex8TPTWEg5Am63jNYV7P3ZBqlxwiVkoFWpGTgnb2FePqnMbgzYQjunxwqtzI27Pm6ZuzILsPj72WqK0LB8BZB5R1CURGaTCWPzqD10bo3+39qHXPiJGn37pf34TVO7IdnhGMWtVUQ9ZrY2totXfQq06HA16lORqzO6MXdy0igXljfHgfJbDkgLacCadnl8AlwxzC9O1wJsriaylnjQQrmOWYnLA7diNURqaxWDe7KXoJPzs3m3UnRIjPaZnRmyGoiCGRGuRYSJqrju1eU9ngcpHRqptr6VtSK9bi4t8UT88M+RYJ3Pp7Jn4cHB32GzWVxCHSqxWK+LmwIxero17Hp/Hi8V5zI/mno/DgIyUMQ3iQZPYex4B9B/1VWxS0UdHfBaecHdCJiYjO5Yd7gT7F2xNuoMnpg4ZQ9qDe64I7snyDAyYBPr3kOORMfwlHDULwe+QbazI7YXDpdzRDXNEMCdXjprlEs1UCp6YS1GM1yDbRiUxYy86svFpz99ICOTR3rUYQLZhfEZ7yISd4ncMAQhtLmIOQxqJEHX0WEUxkKTIHIjXsEPiIbggyYBQ8y164npnDJ7AEzWXMXScNE+p5ISTSbPZgQ7o/Y5TtwVqxvugZnfzygs0ggy/Lvw9LBO3BLQBr+cvJ+3lTQcauk9JKGQJS5j8WKwS/CSACvi9KSixwjbqb8FyBaOOmnPb8XaennZF8MG+6LwytvQABLbcHUUDz1zrFuCsD+QNjY9wRvwQPBu6Rvu2tjScE1fG2UZQOWyNol12JabAhufXICfjP0Q3wzYSmSi6dhTfaNVN1e8mNOMeJpYs3i5SIbvYhiNp0z7UYuCSKDPNXmtzH7AmF0NZo2vDriTeyvj8F1h5JwwhAMP18LDjw5G0v+egzXRwZg6fRwJK7+EnnVwYhJS8bKEeuxIuTvWJPLPlHUKm8Vilg8mbT6y+Ha1q62soOidCM4+wMRWAim2eyMgc61iNKdRWZjMAw1LfiMtS7EobAZz+3B54fOidUbbtanIZ7MVk1SkH3SQUcaRbmEajUd+z2tkO0LRDHDQgaan/so7hy4HxuvTsJ5kw57y8fgkeR0lNa24DjF6OeHiznNfTHdLw1JUe/iqcLb8FFZvHCVU6l3C3n79whLa3dFPHvjKtyuP4Cr3M9gr2mmFIovWR+TuvlxAeaFAMd6NLU7IOlMIlemA3htRa9v2w+spdbvs8PXM74W7KwejdWxL+KgIRxbCNDCgzfp9yDR/xjWnp2DRpMze+ptPJC1Ql7r0NHEDj08c77csf75fkTTSqcTMD/oS3yT8CjOt3pgWchW3Jb1iByQH496BXkNeiyM34OSFg+Vfh1a5aVNrepDvlaym3yuZnWaksX6CKpZLKkt3Uuwf4A4tOAwaXdO5uOY4puLtQV34I2YF/B8+EY0trtgW0UMEtNfwR1DtiKHZJBjiKYnjXKl+fL2fGw/XsZ+alZBWBueum7p+mNyaV1Q0ajKlH4HImqLjmUZIpEl5ghJILlkFlmsnL5ZsKZ4LsG2YdM59o7GpIIQ14hHUlwaHyLDyRWk7ZKX++XUceViojs6XPIYqR+/DFXUcpElY8ERQxQmfLW645Cly3nruTYOw/U7FJNYqGl7XAb/r74MFdE2qpvte3a8wY9fT//ATLn8mv0Kst6t2X+AJoA4yZ8KXanW9TMnpQJmk/GK/pkTUPcv9klDPOCbykcAAAAASUVORK5CYII=;" parent="BnOOSWI3Pid4ku8t8Snk-3" vertex="1">
          <mxGeometry x="93.91304347826086" y="30" width="50" height="50" as="geometry" />
        </mxCell>
        <mxCell id="XTCqMoGkB20KvRFNDshd-7" value="Bitte geben Sie Ihre registrierte E-Mail-Adresse an:&amp;nbsp;&amp;nbsp;" style="text;html=1;strokeColor=none;fillColor=none;align=left;verticalAlign=middle;whiteSpace=wrap;rounded=0;" parent="BnOOSWI3Pid4ku8t8Snk-3" vertex="1">
          <mxGeometry x="30.869999999999997" y="100" width="176.09" height="30" as="geometry" />
        </mxCell>
        <mxCell id="BnOOSWI3Pid4ku8t8Snk-15" style="edgeStyle=orthogonalEdgeStyle;rounded=0;orthogonalLoop=1;jettySize=auto;html=1;exitX=0.5;exitY=1;exitDx=0;exitDy=0;entryX=0.5;entryY=0;entryDx=0;entryDy=0;fontSize=9;" edge="1" parent="1" source="BnOOSWI3Pid4ku8t8Snk-9" target="XTCqMoGkB20KvRFNDshd-8">
          <mxGeometry relative="1" as="geometry" />
        </mxCell>
        <mxCell id="BnOOSWI3Pid4ku8t8Snk-9" value="" style="shape=process;whiteSpace=wrap;html=1;backgroundOutline=1;fontSize=6;align=center;labelPosition=center;verticalLabelPosition=top;verticalAlign=bottom;" vertex="1" parent="1">
          <mxGeometry x="80" y="340" width="240" height="140" as="geometry" />
        </mxCell>
        <mxCell id="BnOOSWI3Pid4ku8t8Snk-10" value="" style="shape=image;verticalLabelPosition=top;labelBackgroundColor=#ffffff;verticalAlign=bottom;aspect=fixed;imageAspect=0;image=data:image/png,iVBORw0KGgoAAAANSUhEUgAAAVMAAAEVCAYAAABdSgYFAAAgAElEQVR4Ae2d269c133f9xjoc+R/oC98KfrUAn5RBKQoSoBF0dfCQPqg9CEi+CKgQIoicu2Yeumh4xRBUSuqEiFOKYmUREokJdGJH9SWh1QMOLKU2tYtOEqpKjq+tZJlS7zKq/jume/Md35n7dl75uw9s2fmu4DhWntdfpfP2vt71swcksXg3O009Xr2Vho8ezMNnv40DZ78KA3+dD8NvvFWGvzHa2nw0MV0z4Mvp7bKX/7zv0hX7n1h/tfJ/ZSuv5NerVz7P9P16yn99KTYxpq0n96sXCNzG8z5y3/x7bYw2I4JmMAGECgG52+lqde5m2lw7kYaPPNJGjz14ZSYFr97oVUx/e6/enl+IYXQ9UBMv/vF9n6obMB95BRMYOsJrFRMv/9vv7O2YorYXUzABEyABFYqpnt/+IO1FdN3v/EGGfau/v7+C+k/Xz2afueFe8oX2t/ff7F3cTogE9gkAisV059d+dHaiulPvv3+wvfBa48/kB54/LWF189a+MIbX04PXvh72RfG8uVKevjX7033yeu3Tl/PT53qxbr70xPlVG1PTVrs4vrp9Ftj23OYuHJS8jiZdrF0UVtzuG029SDnh69gZVX/yGoup3IN2WPe9fTE/fem+4YGM+HAx4hHZjQXQ7N7IGtsKztXKqaf3bybrv7Ty/ML6qo/M73vxXT7w1uL3TD7l9PJk4+nx0+eTJfxnViLBafPKiFlP06tB0sUwtHDXflg0oKu0zbHl1yXoimCcf10eqIUqyXHUemuilHoL8VTfxDkcppes/vwvWm2+GG+2DkQ47S9sbjW3gMHDG1tx0rFFNR/+O+/O7+YNvi2faHfEmho9/UHri58w+xfPplOXt5PrBc2lFmIt/MUTa2/87cX039/58lyDHMOlvgg8TQ36+GDFV2n7YMeltIDEbr/dGpypl5KPAecVDGK/XJdmdNkzvXT9884kTIIzJ+1nxN7XDE80c9aM57pRkqpXky/+UEaPPJmGuxcTcVDz7f6bT524Ecvvrd2Yvp3z7y74M2zny7zRFqeUC+nyeH0tfT4AyfT5cuPpwceeKB8QXTnKf/uxc+XgvnQ5X+YvvXDPyrbf/3+8LcOnvjuQ+U15hwsmQdp9LaRBxOcfMYfA7CzUkxH9q7grfpwHZaUD/3oWk9RTW0//PD96b5aQcid0DS/+WIbCsok93HqzP305GMFzekgY/RoHDoj9E8JKMZm5AT/jX6AwM4sYQwxlOENPzqY5Kwxux0JrFxM73x8O137Z99aG0FFrHd/eSdybHY9JaAirOVqiKl8lvoaRPXxNM8nqxTTx145UVr86NOflvX510+VQorTKr6UOljmeZB07qz2vZOHvHzbKoJQXuce7Nn26sUKmY0+O/z1e9NEBKLdprFhndiZ+ux1ODb+jLIyJ6U9WjP+bJoMQv8k8NHiqpwmP6jUS74NH/SXm4Fx/QwWcyymOVJVfaWYFudupvHr2RupePbTVDz9y/L3TItvfpCKR95MBU6mX2r390wZ1PU/fadXYvpXv/k/0vtn302fvPtxuvvpnVI8f7n3cXr/qb3yxbjnreNbe1xPvoganUzHh9F4Xe9N3+ZDQFFUSCGmjd/mlw+SPFwjQRyeTtmvD2BVG1HoWOZ6LttlWvV/lMJHIVT/2s7EorHGz2BTSjhFD7Wuzk4uxLiGc6Q/45OzeEqe8l+e/rkfo5mj3Id7RQGFj1G7cjzYiffAOBA3cgR6Iaaf3bibvvMvv71yQd39jZfS353725Q++1WO1SH7RifP0Vt4vpWfnD6jeMbrevf4ckk/K821m30BFT4znXrAcVrhQycioCI01UbcOi9cz227ngNnTD5LVP/aDrGUC2V8Krah1c7FtER/f+WXSdmcGp+KKawkpLXkze5M/hxyfZBAAzHdT8Ujb6Vi51oqvtTuXyfVcPYvXF+pmEJIP/yr4dviO3fvprfe/3H69mtvpWevvV6+0EYfxhYqeNt+Uj8jhRW81X8gDX9LKopnvG7mdfFfjaJAwg8eLJ7AcCmfy5UPGOfqA1jVpj2uCddz257B4crp0a9pYc7wLerwo4EFY4scpsRFbYacKkOMazgx9st1o5xGn0fP/OwUNucRU8yXe4Chuq4k0Bsx/dVnv0rf+zdXViao5Yk0pfTLGzfTt773Zrryxl768Ue/SHfufla+0EYfxjBn3oLfLc19oTR5qx/FM1439/i/Prg0+qX9X0u/88Kvle38iZQ2hw/O+Aumis/OyvH7T6aH2zyZjkSvue0g7kyhrEMe488e0U8x1zYW1VyXAsovoGijwbqpuHgR4ht/sRRjUHEMa7I5De2XX+RVCirs1Ikp80StuTJ+17MI9EZMEeStn9xYydt9fEaKt/Y4dUIsf/h/flTJDGPfevWNxU+olZY90JTA5K120xWeZwLdE+iVmCLdj3/wYbr6T15a6gkVXzah4G08Tp91BXMw12UVBOpOWKuIyT5NYPR7puNv8vGt/oFv85fzmaluxo///P2liim+tUfB56J4O19XMAdzXUzABEyABHp3MmVgENRlnVDx608oT199rfx8lDFU1fgcFXNdTMAETIAESjGd9e+ZLuP3TBlMrPGWfxm/MsVfwp9HTPEtv4sJmIAJkECvxRRB4kuprr/lxy/ko/htPm8L1yZgAvMS6L2YIiH82hR+D7WrUyr+ZhOKv4Ca9/bxfBMwARJYCzFlsPibUvirp23+XX7YopiWvxr16hu1vxp12b8axS1xbQImMCKwVmLKXcM/joJ/bQr/fN9C/x7qfS8m/DN6+Nef+HkpbfOX9nffeDf/S/uvvrHQL+3TvmsTMIHNJLCWYqpbgX9gGv9iP/4LFPy/TPhP+vC/nuKvh179jZcS/hdR/Od3GMN/NYJ/Ib/uH3bmXyf989feTM9ce718oX2ov06qQbttAiawcQTWXkw3bkeckAmYwFoSsJiu5bY5aBMwgb4RKIrzt9LUq/y3TW+k4plPUvHUh2mVv2faN1iOxwRMwASqCFhMq8i43wRMwATmINA7Mb3w5v9L//qZv0n/6L+8nv7+779avtBG35997ydzpOapJmACJrA8Ar0R073/eyP99oW99I+/8dfpd//if6fzP/hpun37dvlCG30YwxzMdTEBEzCBPhHohZhCHO977PvpN59+J73941+MRZRiyhpjmIO5FtQ+3UaOxQRMoBdiitMmRJKiWVdjLta4mIAJmEBfCKxcTPEZKd6+506k/Mw0iivmYs3Bz1CvpZ2jR9NRfe1cOyRr2Dyezr5XZ6bhvGs76Shieu9sOn78bKo2O8uejqG9k6qz1Ll1OcwYR7wHOLRke4bbg0Nt+1R7aM9ieTCaxXvg6+jwXhgb0VjGnQ0a86yry3GWrVljDcKsnNLHmCqDzQwMuaxcTPHFEj4PjYKJ6yoxxRjWYO10iZv9Xjp7PN6w0yvqr6LNqhVN51Wtj/2z7M0am8dOnFt9/d7Z42lnZycdn/qpMk8c1bbnG2nbZ9v2mmYz9Hv8uP6gXjSWRdflYp1la9ZYzlZbfbP8zhpry3+dnWEMKxdTnDD1y6acqOb6sAbf8k+XHNjYh+vR6XV8ah3O2dk5no5OnRZl7tGjIyEZCfTIxlBccvNw+Dw+OiXztJNbywzERhnXMKazZ3fGJ+2JkI3GymOttmFrHju5+YxHa8SNHK6lnQN8jieNcYw05fKv8jcr17hmJ7xTiPlyPsQ/7idz0jVqbxTH+O2Czpuc/Q/uK302va84/3g6e03foaj/du+VCQv1wTg07tH4gftOWIyfBfJM6doOnw/alB8SfDdWThc745uli5iG/CYuduTZlhim3m2N4jiQ+yTPSUts7AzvoZWLKU6fObFE36yTKccnyaEVNwV901Cx6UPA6OeGD8FMxEqt5mxyHGMUyjhPxzhf6+lxxFW+/R9Pwbj04YbM+pr2O5+d4UNwkMc4iGEDb/FHd+WEH4bqYiSbib3J+oP8x/lP5Roe1HKM+1YV/zCu/H7OsneQ5UE2mDNfXvk4Jr4mTCZ9E2LkPPE53x7DZrXQzW9rwl5jLH/AjO6RdG0n4cTNvOFD23mmE7tdxBRjYDyIdXKAGrKqug81X7VX2jh6PG2ZmI5g8WR6lMJadRPzRp5sdAm0fKD52SzHoo2hiI83hjvRaG3Or9pv0h47zJzkNGbmMaz5PHB1Gcn4BxD0c/SZbzlB4yhniq9c/pif8zfLTt1YE3tT2UiMMWb1VRXrYfKqioMnfvU/Yj3mpXvGNu2FdVOHinnGIo94HW3Rf/k2JB0f/ZC5tqMn7swPzXFOuecv5yP26bW2JR40x99LxBiUn67XdsxdbefnrVxMZ73Nn3Uybfw2v/zihD/VIwQCqurPAD3wk4wbk7cxfEs48j/X2mhPr5u0q3KrWsv5scb8acHKn5AzrMZv9eflPyvGWWOMXeewj3Uc0+uqNtdO6ql9nRKvyZz8OyWOq6/hRyLHz56dCH0n9wp8q19t5+Oqn891FCz+YMD1Tro2FrTom+tifwcxVX6UUuc7F0tcM7leuZh2+wUUYEzeYvAt//iIDw5lqYKGwTCmJzO0x5+5hHkjy0OfI8GtXIsbT+PM+J2KQ31pe147ufnjwIcNjXk0hLc4wxMsfE/iLgVm6jNVLIAP/sCp8qc5YI1ehzVTzMPYKL7p9ePOUSOsmbI3w280s1BeakR9oX94Pf5CSrlPxRjiL03mbQ2/K5w1dlhbms/oB4K8vcf9MP2lZc7fJPdhvLk5s3KIY9Mxlfdq+OL0wFv08T0bbcVr2g4xjvZn5WJ69frH6R/84WsL/WoUfq1quiD56VPUgbet5UmVc+pOTEPrgI9ftxqKsPgYffDML7ir5/HLi+q1w4dpFFcZdNxIva5qI171Ab86l+MUN749izwmVMubkeGze/ygD22XX26U3MXugThGixvxDzHrmsC8fCs33vNm+zm1ZsreDL/jz0kxR/dpnrwIEHXwVXbFH870o1+ScS3H6vY4+sldN7U1/Lx58ixoPkhp+GXp+JmL15iueznFdNa9k4t5Mn/6ucvFNJk7HIW9Uc7jwxBGZvuZsqx59OULKAToX9qf2iZfmIAJrCGBlZ9Mwcx/nXQN7xyHbAImMEWgGDx3O029zt9Kg/M30+DZT9PgzEdp8Gf7afDIW2lw6loafOliuufBl6cMtHUBQcUJFW/5/Q+dtEXVdkzABJZFoDdiyoTxGSq+lMK3/Pw2H230HfyMlKtcm4AJmMBqCfROTFeLw95NwARMYDECvfjMdLHQvcoETMAE+kPAYtqfvXAkJmACa0zAb/PXePMcugmYQH8IWEz7sxeOxARMYI0JWEzXePMcugmYQH8IHBDT4tzNVJy7kYpnPknFUx8u7fdM+4PEkZiACZjA/AQspvMz8woTMAETOEDAYnoAiTtMwARMYH4CtWJafPODVDzyZip2rqbiSxc6++uk84fuFSZgAibQHwIW0/7shSMxARNYYwK1Yrqsf+hkjRk6dBMwARNIFlPfBCZgAibQAgGLaQsQbcIETMAEDojpYEX/nqm3wgRMwATWmYDFdJ13z7GbgAn0hkCtmPpXo3qzVw7EBEygxwQspj3eHIdmAiawPgQspuuzV47UBEygxwQspj3eHIdmAiawPgRqxdS/tL8+m+lITcAEVkfAYro69vZsAiawQQQsphu0mU7FBExgdQQspqtjb88mYAIbRMBiukGb6VRMwARWR2AtxLQoirS7u7s6SimV/hEHy7Fjx9KpU6d4ufJ6UUZHjhxJZ86cWXn8uQA0pxMnTiS8XEygrwQ6F9Mq0UE/Xk2KPlRN5lfNgWhAPLTAdhNRhJhjLktVXhxvUtNmGz8olNE8bLsUU+anLOCvqShqThZTpeh2HwmsTEzngaEP1Tzr4twopvM82FEY2hDTGN9hrhdltEwxnUfkwUJzspge5u7w2mUQWJmYxocDQoeHhy89raEvjiucOKZr4zyIB0rVg03/qDkX8+vEFKdbXbu3tzd2jVx1DG3EjDlocy5iirlwbGysogE7zHsethRTjU99Mm+OIz6WGK+uwxyuRRsxKU+1Qduo1QauF8kpMoQd+EeBffXX5F0JY3VtArMI9EJM+dDxQeI1A8fNrw+iCiHnVq2lDdR4yGAHD5Da4xz40Ycr54dzMca5fHg5Rj/0Cbss9I9rPtiMHTYxl9cQAPQ1KViXE546PohH41PRY3y0y2vGF+ONcdJ35MN5WK/5gafGskhOjJExR4awiXhY1Af7XJvAIgR6Iaa44fHSgoecN3284fmQYn7dWrXJhxr2KIQcx1gUWPWjbayBCNCGtmmPMWOOCobGywdfxYk2YQc+Y0y0H2v6Q7/60DbXKFttY1xjirFjXHPVNm1rTWaIDXFoUT/ar3loW/PQNtcyD/pkv+6rtjmes8Ux1yYwD4HeiCkenPjCzY+iDxWu+SCijYchrsM115YGRn/wYeIDh5oFYyp66Kcf1FzD+SokaOdiwBrYxRgLHnoKptrHuNrEdfRJG7kaPpiPCkQdH4qQ2oQtxIY4c3kx/hiv2kCb8TNP3RP2xTUazyI50a6yQJwo3IuYExi5mMBhCfRGTGfd0PpQIWE+pGircNTBwMOEhxWFQoGHD0XHyo7gR31iXIVE21zLOj7AfLAxzgefMUQ70Sdt5mplpEy0nVun4hVjAiONN66P8cZxjZ8c0Bf96DrNQ9uah7Z1rdrFWr44J7fHHHNtAocl0Asx5UNHUYlJ4aGgCGIMDzEeKJS6tWorPkywoXbhh6euKj+0p0JCoeCY1vChNnVsXjHVvNUO2oidQqViU8cH+WMtC9bCDwrjo13OYa0M2Kc1fbOPP8B4jfX0hT6Mx/2g76Y5YS/UJn2xRq6Ykyuz9jE3330moASWIqa4gfWFB0QfDgTEG1nnUVz5AHBMH7i6tZosfMS1uEYsKBQP+mE/xqIwRCGhUHAtahbtQ5t26Y95RpvRJ2KtEmbYzQkPYpjFFjbjOONGzRg0B/qJ8eo6Xav9WIMXC/zTNtpaFs0J9mkTtdolcx1H/ihRzDUWt02gjkDnYloXwKaP5wRHRaJp/hS1pvO3dR4EUcUaHHJ7kOPDHyy5MfeZQB0Bi2kdoUOOxweUJyOeRpuahyDwBNV0zTbOi+94wCDuQY4L2EYRzs1znwlUEbCYVpFpqZ/iqW8r+Ta5JRc2EwhAPJV31UcjYZkvTeBQBCymh8LnxSZgAiYwJGAx9Z1gAiZgAi0QsJi2ANEmTMAETMBi6nvABEzABFogYDFtAaJNmIAJmIDF1PeACZiACbRAwGLaAkSbMAETMAGLqe8BEzABE2iBgMW0BYg2YQImYAIWU98DJmACJtACAYtpCxBtwgRMwAQspr4HTMAETKAFAhbTFiDahAmYgAlYTH0PmIAJmEALBCymLUC0CRMwAROwmPoeMAETMIEWCBTF87fT1Ou5W6l47mYqzn2airMfpeK/7afij95KxdeupeI/XEz3PPhyC25twgRMwAQ2i4DFdLP209mYgAmsiIDFdEXg7dYETGCzCFhMN2s/nY0JmMCKCFhMVwTebk3ABDaLgMV0s/bT2ZiACayIgMV0ReDt1gRMYLMIWEw3az+djQmYwIoI1Ivp6f1UPPp2Kr72Siq+fGnu3zM9cuRIOnPmzIrSW65b5Il8FyknTpxIeK1j2aY97vP+FEWR8Dp27FgrYe7t7ZX2ULvUE1ipmO7u7pabhXoZBWKlYte2CNSJKW9O5Hvq1KmpWKKY4qFowqXOJxnzQUOtDNrg3jbHNmJqagPclQ3a2BstyK/vP+gQc1siytx5vy4qpoddzzhydW7fsHerPLitVExzkJbZ17YI1AnbrNy6FlP1zRtx0YdEbaHdNsdov8vryB2+8FC2LUxd5gDbuTwO6/OwYnjY9fPEj2cP+7bKsjQxRaJ8MeEcbDyYnKc3NGDhmkKAn8Q4dWE+2lyDNu2iT23oT2/OZ131E43jqOGbBbZwDfsYw3q8cvFwDWrNT+2hjZfGTt88ofIaNfzjpX2wHQtPprGfsaNfuXAe7NIv+1irX9iBX+WHPo2L63L7hbm5Em1ijsakMaBf/WNPcK0xgGuuwH8uBrUJe/CHAru4Zo7sV9txDzU25qWx6Vra1XGujzlxf3gPck3VfI0VfnCNeLAuZwvjGFN2nI9++GXBXNhkLF/96len+Ksd2kWf9pOb5qk+6CtXww7zRi641gI78MuiecQ4mAP61X/MUX3C7lLEVBNDcICOQnjcLB3DOK4JgIB5jXFCoz1eqz9NGGsVDm/sMpjMHxhXfzof/Woby2OMjEfzQx8Kc+c1cmAeGIdtjuE6jpdGRj4RV1VhDHGcsaI/ckFf9M/1tMecIgdcazxqm2uZZ2RAH6gxR/cK8dIufXI+7aJGwTrEzxijLa5DXcUVNhgn2vCJQm68VltswzcL5/MaOei4+snNpR/myJx4TbsxD9rifLJGPwrmxz2GLzLGnMhRY+U440MNe7SPcfpkDOhjXGij4Jo+OR9+WKJN9muNXHRNZIO5GGesOp8+ee9gTHNQ/zHHmMtSxFSDQ5uJMxHU2iYozCVobXM8By3eIIBDiKjpGzZgW2OjXdQ527pe21yXixE+uFGcx1r9I068WHJ5kAXnoM751PFcHhjX/lwu0T9txjjRr3loG2O6r+qT9rAfuT3gXKxH0Ych+ojjOhdjsJVjh7FcPrFf7dXxxlotmj/6Y+ywB/socR80Nm3TvtqK4xoz5+scbXNc7aFPY9c25yuLGHtczzW5uHiv5XwgTtiuKogB67Xw3tE+9attzIl5V63L5QjfiHsYe92/GtXyt/m6AQqPbQSnLySKouuYbA4a1qKfRW+aCGMWRNrWWNDGRqBEW+jLxag+cjliDYrGieuYB+cwnnJRhU+OoWYe2oc2/MIWSi6XnH/Mzd3cmiPajFFr5J6LJd7YZUCjP2iX3FCjoF/3GH3KL9rM+R25mFrHPtSwAZtsgxFKbo/LAfmDbGP+mMKcOF3tcR3HMJd+EYvaYxtrUDR/XCN+jtGe7nOcjzmRq3Jnm35ZYw2K2qY/ruG+oR9xca3W2KPc/FyctI8aNmKeuf3WewI2cY1Cn3o/aVxocw9yOWKca1dyMuUGMBHU2lZYbAMY17EvB02TwzzdjAgD9uJGzLLNMdTRFvpyMaoPxKb+dEzjhK2Yh/rWmyHnU+fmGGE82uDNxbVV/mOcmK95aJu2WOdi0Zuc81iTMXLU+HI+1I62YSvnlz5y+WBM90rtNeWN+xkl3tcxdrWHNvzypTlXxVmVh8acm5OzF2PT2LVNe1pzr7QvtyYXF9fk5ufi5HzYUkbspx1eo1a/sEnGqBE7Cxjota7L5Yj1uL9QJmJ64U4q8CpPqrdScf5GKp7+eSqWdDJFMAgcieaK3nQczz0kmhzm6WZEGAqKNrWOYHUs2sJYLka9QTU2xo41KBonrnVdOUH+UN+0I8NTzdw41iMW3HQonMNr3mzoj4UPfJzLPGAbsecK/ejYrD3gQxFZMH7aoV3GFG1ynPO1jtwxBn+wwaL2cnvMeaijL8bK2GIuag+xYH6u0C7txDkxj7hPZAk7KHE++3Tv0Nb7BBywLlcQtzLjHL3n0ce4OK41Y9Qcc3HW2cE4/MKXziVb5EUO5QT5Q/eH8XBdLkfmN9wfvs3vgZgiJ24ggsSLm6c3HXPnDcZr1EyOfboZEQY3Nq7hWtpjLKhngc3FqJuj/tCPmw99KBonruGHfrGpkUu5aPQHx3I3MxnRFmrMjwX+OQe+MafqhotzNQ/Y1XH1x1jUN9aSqfazjXHYiCX60Acw2sz5pb1oB75iPGovt8e0xVptss34wJV7jvnRHveANdazYC77WdMu5ulcrNF7CPN1P3PzsYb3Euejpo84jjH6hC9wigXjmIcXS4yLY/CDtvqripP3BW2zZjzKCnPRz33l/cA1qLkncUzX5XLEWnLt/GRKgK5NwARmE1DR5kx9WNnn+nAEIlMK6GGsDsW745PpYQL0WhPYJgLx1Jo7qW0Tjy5yzTGFEIL9YcrwtG0xPQxDrzWB1gjwQcfJiS++hWzNiQ2Vb+nJl3UbWPw2vw2KtmECJrD1BCymW38LGIAJmEAbBCymbVC0DRMwga0nUJS/W8pfi+rg90y3nrABmIAJbAUBi+lWbLOTNAET6JqAxbRrwrZvAiawFQQspluxzU7SBEygawIW064J274JmMBWELCYbsU2O0kTMIGuCVhMuyZs+yZgAltBwGK6FdvsJE3ABLomYDHtmrDtm4AJbAUBi+lWbLOTNAET6JqAxbRrwrZvAiawFQQspluxzU7SBEygawIW064J274JmMBWELCYbsU2O0kTMIGuCVhMuyZs+yZgAltBwGK6FdvsJE3ABLomYDHtmrDtm4AJbAUBi+lWbLOTNAET6JqAxbRrwrZvAiawFQQspluxzU7SBEygawIW064J274JmMBWELCYbsU2O0kTMIGuCVhMuyZs+70jcOzYsXTq1KlW4yqKIu3u7rZq87DG9vb2EuJC7bI4AewrONaVTsUUNyyCiK+2b+S6JNd5nA/EmTNnyjTqNpbzI/OmDLie/pquW3TekSNHDtwfbfsmM4pdUzE9ceJEGRvXzcoRvJvMm2Wj7THuJeo+lDpGuXvhMEyxz/E5iPcWxuv0CDFgXl3pVEyjcwbVl82N8a3DNRlWxZp7gPhD7TA3ZpW/w/bjAYo3+GFt1q1vKqZ4gCCoeNUVzO0b39y9UJdHl+N1jOK9wHu9TuyqYo77TB5N9lNtMg7ty7WXKqaARTBMDDVLvHH1J5UC0J84aLPANubpOEDgYcVG4kX/WIN5OoZxFNjgfH1ACJVjKgI5W5obY6R9xKH5YS76crbRF/PgPLWLdo4r+umP82Pemif9cV1kqnljjuYxaz/iOq7N9esYc4UfFN1fZRxz4lhkgvV6H5RGw+MfYvUAABFCSURBVB+whXnc8zA8dY9w38gQvMhbWep9hX4tyhDzUBg381dOOl+Zq02uJwf65xxewz7ZYoy567jyQr/mpzliva6DXcbBPOJ8xoO5miP6yR82aIf50Bf85Upun2mDexV9auzkyhgQG3PI+VyamBI+k2ZSVWAwn8lwDWokocCRHK+xJndNO4RCn+jH/HgNOygaM+PlJvA6ruU14qRfjZ85wC9tcQO5Qdw0rtO5zIFjsY5xcZzrMK5tjPOac9VfZBpjQ46MG+txrfxgi/tD+1rHmzmOYT0L5qo9ZYwclLeORSYaI23HWufEGCMD+FJm8Rq29V7iNePFGNsah8YQ++GDpWqe5p3zz32CHeTIa+bHa94fsIcS81PbnMvYtFZG2s925Mx+7rnmwzHEoizYj7qKi+aqPjUPrIdd5MOc6IdxoF/LUsSUwXAzEAAD0j4Fg8QAsa4oMKzBNQv98ho14BGCrsVYXM8Yc2Po0/Xaxhh8wFeuaJ4Yx80b5yJ3stGbMJeT+mDMXMsx7Y/+MUdvKvUXmWAuY1Ob9KO55NZyHmv4hT2+lIPGhPkx7lmMNY4YZ9wrxsI6zo955NYrsxgn7MZc1AfsY30s8IOXFl3Hfs2Vfag5F/EoV53Dtsacs4f1fG50rvpBm/cn59I+amWk/WxHRrGf+aBmibGwH3Vun2K/+tS22mFO2gfb4KRlKWKKIHHDaGkChjcZNkEB4lpftI1ab74cBAUWYcf1GqPGkvMdbeV8M/94A+RuXvjgDantWXZhX2OmP9Rch3H41xzY5s2h/iIT2OI4fXE9azBGya0tB+QP3Q/pLptxLHJjTlwX82IcjBM1iu4VY0aN9SgxbvpBzfVkVXYIE1zHONGHWNQX24xJ7y/20Rfmxly4njXHGQ9q5o05+lxwToyJ+efuR8xlzjE/+mHc5AW/XAOfuCZDxqC1+tB+2ol+MCfGout0n7UffsAbRX2inYuP+aiNnO3OxRTJIshcASRuAMarwCBx2kBNEFijSaFfb5ocBKznButa2IrrdfPiWMwn2sr55pqYZ+7m1RtP27Pswr7GTH+oET8ZRv86D231l8ub41W+aC+3lmOsdT/YxzqOxbiVheaH9co0xhn3iv5Ywy9yjC/4R8mtJxOMxzjRF3MpDWX+iHlwCnzCbsyF47la58I/48dc2uM6jVnZcVzj17kYVz+cj5r7g3EUZaTz2FYf7MvZoD3MibFwHercPjFW2EVRn9pWO4xB+3K2OxVTBqHJa0AIHjcPCufqhnOubq4mTDC0gRpJstAmr1Hr+ggkrqd91GzDZq5EWznfXBdvAM2Pc/TG0zbjQJ0ruXHYVxuMrcqGzo1M4FPHkXduzzAvtzbGrPtRNxa5MY+cL8QF2yiRSdwr9UubkQ1yQd4o2sY17CmTGCfXMJ7SSMUfuXsBU9XmLOZqVvNmG/ZRIgPEz33MxaD7pLHAFm1HZrFfbWicbMdxrgdvFszhNfeKcXMO65gj+jVPXKtP2ME1C67hg37Yjzpv+8KdVOjr+dupeP5WKs7fSMXTP0/F6f1UPPp2Kr72Siq+fCnd8+DLanNmG8Eg+PhCICgMEuOERDCYo+u4UboG45hPuKhpW+1rkAovAonruZlVvuEf8aBEW4xTfbONmJkn+nI3r9rWNn2hTzeethkzxvXFcdbwqeNoM0+0mVdkgvU6jmvEobaYW24t/bOOa2EH62iXDz+uI7fIWG1hLvmQCfOLe8VYcj44RhuMBzaYM/ePzGKctIF+rkHN+NQW+hlnbi5taa6YB9uxMGba454jTo7Rh8bMfNQe/DF3nYs5tIUae0ebqLkG83SMMUUfuhZtMuU87jnGEBNs5nLH/Mg1xoM5mldcQ7v0yRg4j/cp+zs9mdKJaxMwARPYdAIW003fYednAiawFAIW06VgthMTMIFNJ2Ax3fQddn4mYAJLIWAxXQpmOzEBE9h0AhbTTd9h52cCJrAUAhbTpWC2ExMwgU0nYDHd9B12fiZgAkshUBQXbqWp1/M3U/H8jVSc/yQVT3+YitMfpOLRN1Pxtaup+PKFuX5pfykZ2IkJmIAJ9ICAxbQHm+AQTMAE1p9ArZgOnthPg//6Vhr8/rU0+MpFn0zXf8+dgQmYQAcELKYdQLVJEzCB7SNgMd2+PXfGJmACHRCwmHYA1SZNwAS2j0CtmPrb/O27KZyxCZjA/AQspvMz8woTMAETOECgVkw/9+R++txjb6fPff2VNPjKfP849AFv7jABEzCBDSVQK6b+1agN3XmnZQIm0CoBi2mrOG3MBExgWwnUiqm/gNrWW8N5m4AJzEOgGFy8naZeF26lwYWbafDcp2nwzEf+u/nz0PRcEzCBrSVQK6b+zHRr7w0nbgImMAcBi+kcsDzVBEzABKoI1IqpfzWqCp37TcAETGBCoCgu3U5Tr4u3UnER/6bpp6l49qNUPPmjVDz2Tiq+/koq/HumE3JumYAJmIAQsJgKDDdNwARMYFECFtNFyXmdCZiACQiBXotpURRpd3dXwnXTBEzABPpJoFMxPXLkSIIg5l5NRNJi2s+bxlGZgAkcJNCpmKq7RYRxkTXq020TMAETWBaBorh0N029Lt5JxcXbqcD/Uvrsx619m18ljMeOHZs6ue7t7Y1z1zWnTp0q53Gc15iDF/uxGNdnzpwZ28UJWQvGsd7FBEzABNoisFIxhZDixUKB5DVEDx8HUBjZn7tWwcQ6vUZbxdNiSpKuTcAE2iKwMjHFSRKipidKJEUBZfvEiRNlnyYMAVZx5Fx+Dqs2MIa5sONiAiZgAl0RWLmYxsRwisTJEwWiiJeeMtEfPxrgvFliqifg6NPXJmACJnBYAisX07qTKQQSQqhiiHY8mSqI3MlU1+tct03ABEygDQIrE1MEH0USAqmnUBVFtCmg8TPTCELXYQzrVEzVVlzraxMwARNYhEBRXPwsTb0u3E3FhTupeO5WKp75Reff5kM8IW54qZAiGRVFnFBxzY8AIJBcx5oAdB36LKYk49oETKArAksT064SsF0TMAET6AMBi2kfdsExmIAJrD0Bi+nab6ETMAET6AOBpX0B1YdkHYMJmIAJdEXAYtoVWds1ARPYKgIW063abidrAibQFQGLaVdkbdcETGCrCFhMt2q7nawJmEBXBCymXZG1XRMwga0iYDHdqu12siZgAl0RsJh2RdZ2TcAEtoqAxXSrttvJmoAJdEXAYtoVWds1ARPYKgIW063abidrAibQFQGLaVdkbdcETGCrCFhMt2q7nawJmEBXBCymXZG1XRMwga0iYDHdqu12siZgAl0RsJh2RdZ2TcAEtopAAzHdT8Vjb6Xi69dS8ZWL6Z4HX94qQE7WBEzABJoQsJg2oeQ5JmACJlBDwGJaA8jDJmACJtCEgMW0CSXPMQETMIEaAhbTGkAeNgETMIEmBCymTSh5jgmYgAnUELCY1gDysAmYgAk0IWAxbULJc0zABEyghkAxeOGzNPW6dDcNLt1Jgwu30uDcL9Lgyf00+OO30+APXkmD37vk3zOtAephEzCB7SRgMd3OfXfWJmACLROwmLYM1OZMwAS2k4DFdDv33VmbgAm0TKBTMT127FgqiqLR64tf/GKZ2qOPPlo5/wtf+EI6depU+tnPfjaFYdYa9X/ixInxuoceeijr58iRIwnzdnd3x3PRQB9tYW0se3t76fOf/3w5BzUL8uK6119/nd0za+RHW1iLNuxXFXChD9TgHhnpWsSBPHXNSy+9pFPcNgETmJNAb8SUQgex1Ic814YQqFg0FVMKNhg1EfozZ86McUJcNZYojCq2zCX6iQI9Nh4auXzQV1U0LrZnzVeB53xlU+XH/SZgAtUEOhXT6FYFDKKZKyqmOgfipScwFaycHfapTxVH7afIQaBVFCE0eiLUNWizqNDiFKlCr2voh+uqauapp0f0VRUKImqeaKvmIzbO19g0nyo/7jcBE6gmsDZiihTwVpRCAKGpKypycb4KSRQ5FTE94UHQ6R8116kt/QGA+HSM82fFDfGmD9iisKJPhV1tcD5q/WEQT89Yo6de/HDhWoupEnXbBOYnUAxeuJOmXpdup8GlW2lw4UYanPt5Kp5s798zVWGJosPQ0c8HPM5RccScuqJvZ6MtjSWKnI7FdSpWmKcxQYT1VIr41Fb0k4tfxQ5iqNe5z2phg7xQ6w+c3HyKM2qNHXG6mIAJLE5grcRUhaLu4dcTHkQmnupmiZyORTGFHb6Vhl1t68cI3BK11URMeSrmSVrzYB9ts1YxRV+0wXl6soZIW0xJxrUJHJ5AUVy6naZeF2+l4uLNVDz/aSqe/ag3J1M8+Cpcdd8+6wkS7ViqRA4nyzo/EFgVMLSrPqOs8hPjwbWKnZ4qKY7wk3vrrrHADtayTzlpP0TaYprbBfeZwGIEei2mFIRY41Q1q0RBhGjEkhM5CIx+NFB1ElQRYmwqfuor50fHta1ip6Kp/bkfDIwBNYqKss7nDwnEhKJ5sK8c8B8mYAJzE6gV0zb/br4KS3z7zMhzpz4Vi6p1XI9abVQJosai9tmG8Kigqf3cWsyHGMeic3OirvN5Ao0xqzjCTyyMGTULbaEPP1z0yyZ+HGExJS3XJnB4Ar0WUwonHnqeqiAOdSdTFRIKR0SlIqdihLfr8Bu/SOJ6/dwWftSOngI5X8dniakKW+6UqznpW3f40fjpV0+zYKAnbuamPhGniwmYwOIEar+AWuXJlGKK9PTBh7BSEGLqegKbNa+pyEX7KmrwpXFB1OLptKkfCLGK4qx2FG2dy3j1NKsx6y/na+wWU5JzbQKLEVgbMUV6/LUeiIcKraauwpE74XFuU5HjfNT6a0r6hZPaiqKkYxCvqqInbxXHqrb+MNE5al9ZcI6e1C2mSsttEzgcgam3+eXvm/b490z11AmhiEXFAeIRT4k6v6nIcQ3ESwVPhVFPgfCrY0386EcHenKkb9YqjiqKFErUWvStPsbiSV15xR8CasdtEzCBegJrJaZIRwVNBQVjKlx14qBzVfyqkOEkTNHK2da36Tqufrhea5x2dW3MSeNRcVTRVXs6P4p8/HjAYqq03DaBwxFYqpiqGFSJhr6Vzn3RpKKmgjLr5JhDhLUUIYhOXaGIo86JL07BnAO7tKl+6E9r5MgTJ9br2/cYk4oj5rLQr370wDH9aCTGrfZmfSRCW65NwASqCSxVTKvD8IgJmIAJrDeBWjFt89v89Ubl6E3ABEygmoDFtJqNR0zABEygMQGLaWNUnmgCJmAC1QQsptVsPGICJmACjQks9Zf2G0fliSZgAiawZgQspmu2YQ7XBEygnwQspv3cF0dlAiawZgQspmu2YQ7XBEygnwQspv3cF0dlAiawZgQspmu2YQ7XBEygnwQspv3cF0dlAiawZgQspmu2YQ7XBEygnwQspv3cF0dlAiawZgQspmu2YQ7XBEygnwQspv3cF0dlAiawZgQspmu2YQ7XBEygnwQspv3cF0dlAiawZgQspmu2YQ7XBEygnwQspv3cF0dlAiawZgQspmu2YQ7XBEygnwRqxbR4aj8Vf/J2Kv7TK6n46qV0z4Mv9zMTR2UCJmACKyRgMV0hfLs2ARPYHAIW083ZS2diAiawQgIW0xXCt2sTMIHNIWAx3Zy9dCYmYAIrJGAxXSF8uzYBE9gcAhbTzdlLZ2ICJrBCAhbTFcK3axMwgc0hYDHdnL10JiZgAiskYDFdIXy7NgET2BwCFtPN2UtnYgImsEICFtMVwrdrEzCBzSFgMd2cvXQmJmACKyRgMV0hfLs2ARPYHAIW083ZS2diAiawQgIW0xXCt2sTMIHNIVArpoMn99Pgj99Ogz94JQ1+z/+e6eZsvTMxARNok4DFtE2atmUCJrC1BCymW7v1TtwETKBNAhbTNmnalgmYwNYS+P8mmo84cGKCXAAAAABJRU5ErkJggg==;labelPosition=left;align=right;" vertex="1" parent="1">
          <mxGeometry x="110" y="370.06" width="110" height="89.88" as="geometry" />
        </mxCell>
        <mxCell id="BnOOSWI3Pid4ku8t8Snk-11" value="Email mit Token im Posteingang" style="text;html=1;strokeColor=none;fillColor=none;align=left;verticalAlign=middle;whiteSpace=wrap;rounded=0;fontSize=11;" vertex="1" parent="1">
          <mxGeometry x="110" y="340" width="210" height="20" as="geometry" />
        </mxCell>
        <mxCell id="BnOOSWI3Pid4ku8t8Snk-13" style="edgeStyle=orthogonalEdgeStyle;rounded=0;orthogonalLoop=1;jettySize=auto;html=1;exitX=1;exitY=0.25;exitDx=0;exitDy=0;fontSize=9;entryX=0.5;entryY=0;entryDx=0;entryDy=0;" edge="1" parent="1" source="XTCqMoGkB20KvRFNDshd-2" target="BnOOSWI3Pid4ku8t8Snk-1">
          <mxGeometry relative="1" as="geometry">
            <mxPoint x="580" y="240" as="targetPoint" />
          </mxGeometry>
        </mxCell>
        <mxCell id="BnOOSWI3Pid4ku8t8Snk-30" style="edgeStyle=orthogonalEdgeStyle;rounded=0;orthogonalLoop=1;jettySize=auto;html=1;exitX=0.5;exitY=1;exitDx=0;exitDy=0;entryX=0.5;entryY=0;entryDx=0;entryDy=0;fontSize=9;" edge="1" parent="1" source="BnOOSWI3Pid4ku8t8Snk-16" target="BnOOSWI3Pid4ku8t8Snk-29">
          <mxGeometry relative="1" as="geometry" />
        </mxCell>
        <mxCell id="BnOOSWI3Pid4ku8t8Snk-16" value="Authentifizierung" style="shape=process;whiteSpace=wrap;html=1;backgroundOutline=1;align=left;" vertex="1" parent="1">
          <mxGeometry x="620" y="710" width="130" height="90" as="geometry" />
        </mxCell>
        <mxCell id="BnOOSWI3Pid4ku8t8Snk-17" style="edgeStyle=orthogonalEdgeStyle;rounded=0;orthogonalLoop=1;jettySize=auto;html=1;fontSize=9;" edge="1" parent="1" source="XTCqMoGkB20KvRFNDshd-12" target="BnOOSWI3Pid4ku8t8Snk-16">
          <mxGeometry relative="1" as="geometry" />
        </mxCell>
        <mxCell id="BnOOSWI3Pid4ku8t8Snk-18" value="" style="group" vertex="1" connectable="0" parent="1">
          <mxGeometry x="80" y="890" width="240" height="110" as="geometry" />
        </mxCell>
        <mxCell id="BnOOSWI3Pid4ku8t8Snk-19" value="" style="rounded=0;whiteSpace=wrap;html=1;" vertex="1" parent="BnOOSWI3Pid4ku8t8Snk-18">
          <mxGeometry width="240" height="110" as="geometry" />
        </mxCell>
        <mxCell id="BnOOSWI3Pid4ku8t8Snk-27" value="" style="shape=image;verticalLabelPosition=bottom;labelBackgroundColor=#ffffff;verticalAlign=top;aspect=fixed;imageAspect=0;image=data:image/png,iVBORw0KGgoAAAANSUhEUgAAADIAAAAyCAYAAAAeP4ixAAAACXBIWXMAAA7DAAAOwwHHb6hkAAAK8UlEQVR4nO1aC1hUZRp+zzDchzuMoKIIIheDtNQANW95DXvaatsum1napqXP1q7tulZb2na1wnU3t6ioNXF1t9tqppmpecFENBAoRAEVQe4wgNxmmNn3/w8Dg5K7C8OW+/Q9z4E5c86Z873f5f3e/8xo8fPNp6DR+sBswhVpGi3QbqrjX4ueOx7ftz+9NhWIE/+iTWbjSs2IMAVtBKJY+NL8ffvSR7OI0lL4QvN9e9JHU37MyA/MREb+P+zyQFrJZG3tl77v6AA4c1OUnq8zs1qbjaRFi2AU1UQBO3DHmbfU2r8ALgUibiyc5xYV5otJ0XqEB3pA56JFE98rKGvE/rxKZJ2somMaFZDF5loCUMjqM+OCER/ujwFeLjARWElNE74+XYtD+dUw8DXcnfoZCLOgc3XEnxbHYd7EEGg0PUf9g/RiLH4rA5W1zYCrVgXTZER4sBc2LInHuDC/Hq+rrG9B8u4CPLHpuJqZ78pqn4CYzfxsDbYun4zJkQHyrX0nKvHJkXOoaGiFr5sTZowOwqzYINw6LhjhQZ4Y/8RONIoM0h93Rnkbrw0foIOx3YwN+08jk1kQdBLi74644X5IiAjAlJEDwBPsWmLdgVww4sFbRnaCWPfFKTz850NqrYvMsESSPsjB7+dfi5U8L5bR/y3/P5lyVB6fOyFEgrBYLLgvOR2p//y2q5f4nuiPGGZKlCicLtNjfQIiGpR9sHBSqNytZgYe25ilNrbOBi8juer9bMybMBRheh3uZfk982Eu2qqbEDPYU54iemLLsVLAw1l+ZqcRTPapajUotr1lVyAmMwYymlGDVGcOFVSjSdT/xU0pgLHO935bIYEE+7ohgtdkkwQMzape09LRe5iddQQsS8hF29UPVmB2BNEdCGt6kI8rs6/W7enKC2qWejQFReJ4hwX7uiJbq2BLRgle+Fks/VXw2r3XIPHqIGxKO4MvcstRUt4ogwUSSf/SL312E3XbYU2tPcyPLhxotpkvbkJEc8tjFu9mT627/1p4kxhmjwqS24UWEw6SNP5BptuUdhaNzKjMtH1Lq0triX4UjSp9/Td9qKDrXOt/4dzfSBAHOGfumzQMN48ZhFEhPnBjP0yPDZTb8puice+6r3Awp5wRcLQXDhutpRGlb5RlIczrcjeh454sEeu5Bka8U63pnFHMslu14WusIgmMCvHG3NEDcXvCUFw12Ath7MOPH5uIiEe3oaaxzV5lZqN+OaXPknkaOJnFFI8a6KlObhHti9PD/Wg2uMiEuLhQ9IuDjUOiRMXGHsskS2XmVuDZ93OwbtF1+MWUUPgxc+OpGLZyzkBrlwlvkxFGpoYOpRfWYBoH1thQXwxjNIsEXXq6dF1yoQ1eZKup0QNkRnKKDSgqqVcdb+vQZoKZBDBBsy6OssHNNc1I2VeEB6eGyY/Rib6ylqSxo98cHdBL61S/Zhl1RvCV7SfopF6yV+qiONz9xwMoKm3ouKmCQH83vPVQHHzcHWVGknbkwyIEIoddLIfdSJbPzqzzqK6injJ1OGhRnVxw/bDOfsotrVcdJwi9n5tUArV1Lb0GYwWi1gWZZjtZJSk6H7+aE0HR54dv1iQi7dtKVHFAerEkxvI9IVVMvHHKl0V4Z+dJlYGYqZfuvBozYwJhoObKIIPlnW9gH7SybbQYH6XHOGZZ2EdHS3A8v1ICHEPJsut3k6k12zH+6V0oFEFz+u/BdJcoosgoAH/9dgZyi+vwy9kRiB3ijal07mI7QSf/8GGOKtfFdXT2PZaOO52YQOem8ZppPVyXevAMFr2ZrpYeKX4IMyyIxQuO0Hu7oJClyoN9BCKMohGuClJYMin7TmMk9dRQCj4dHfTXsUlH+GPONYNkCeUnJeJdZiVpWx7yi2qRujUPqbsLEUrwY0J9KCo95DwxchCerrqAtBNVyBE956hRo87yFUN0wVtH0ExQh3m8m6TpExBhol9Io6JncgtqkJtfpfYIp806HhpIB5fMHIFlcyOx6IbhWEAmWs9sCFAZBFRIxVsoSkdrE1mRNVH/QvJLEanex8TPTWEg5Am63jNYV7P3ZBqlxwiVkoFWpGTgnb2FePqnMbgzYQjunxwqtzI27Pm6ZuzILsPj72WqK0LB8BZB5R1CURGaTCWPzqD10bo3+39qHXPiJGn37pf34TVO7IdnhGMWtVUQ9ZrY2totXfQq06HA16lORqzO6MXdy0igXljfHgfJbDkgLacCadnl8AlwxzC9O1wJsriaylnjQQrmOWYnLA7diNURqaxWDe7KXoJPzs3m3UnRIjPaZnRmyGoiCGRGuRYSJqrju1eU9ngcpHRqptr6VtSK9bi4t8UT88M+RYJ3Pp7Jn4cHB32GzWVxCHSqxWK+LmwIxero17Hp/Hi8V5zI/mno/DgIyUMQ3iQZPYex4B9B/1VWxS0UdHfBaecHdCJiYjO5Yd7gT7F2xNuoMnpg4ZQ9qDe64I7snyDAyYBPr3kOORMfwlHDULwe+QbazI7YXDpdzRDXNEMCdXjprlEs1UCp6YS1GM1yDbRiUxYy86svFpz99ICOTR3rUYQLZhfEZ7yISd4ncMAQhtLmIOQxqJEHX0WEUxkKTIHIjXsEPiIbggyYBQ8y164npnDJ7AEzWXMXScNE+p5ISTSbPZgQ7o/Y5TtwVqxvugZnfzygs0ggy/Lvw9LBO3BLQBr+cvJ+3lTQcauk9JKGQJS5j8WKwS/CSACvi9KSixwjbqb8FyBaOOmnPb8XaennZF8MG+6LwytvQABLbcHUUDz1zrFuCsD+QNjY9wRvwQPBu6Rvu2tjScE1fG2UZQOWyNol12JabAhufXICfjP0Q3wzYSmSi6dhTfaNVN1e8mNOMeJpYs3i5SIbvYhiNp0z7UYuCSKDPNXmtzH7AmF0NZo2vDriTeyvj8F1h5JwwhAMP18LDjw5G0v+egzXRwZg6fRwJK7+EnnVwYhJS8bKEeuxIuTvWJPLPlHUKm8Vilg8mbT6y+Ha1q62soOidCM4+wMRWAim2eyMgc61iNKdRWZjMAw1LfiMtS7EobAZz+3B54fOidUbbtanIZ7MVk1SkH3SQUcaRbmEajUd+z2tkO0LRDHDQgaan/so7hy4HxuvTsJ5kw57y8fgkeR0lNa24DjF6OeHiznNfTHdLw1JUe/iqcLb8FFZvHCVU6l3C3n79whLa3dFPHvjKtyuP4Cr3M9gr2mmFIovWR+TuvlxAeaFAMd6NLU7IOlMIlemA3htRa9v2w+spdbvs8PXM74W7KwejdWxL+KgIRxbCNDCgzfp9yDR/xjWnp2DRpMze+ptPJC1Ql7r0NHEDj08c77csf75fkTTSqcTMD/oS3yT8CjOt3pgWchW3Jb1iByQH496BXkNeiyM34OSFg+Vfh1a5aVNrepDvlaym3yuZnWaksX6CKpZLKkt3Uuwf4A4tOAwaXdO5uOY4puLtQV34I2YF/B8+EY0trtgW0UMEtNfwR1DtiKHZJBjiKYnjXKl+fL2fGw/XsZ+alZBWBueum7p+mNyaV1Q0ajKlH4HImqLjmUZIpEl5ghJILlkFlmsnL5ZsKZ4LsG2YdM59o7GpIIQ14hHUlwaHyLDyRWk7ZKX++XUceViojs6XPIYqR+/DFXUcpElY8ERQxQmfLW645Cly3nruTYOw/U7FJNYqGl7XAb/r74MFdE2qpvte3a8wY9fT//ATLn8mv0Kst6t2X+AJoA4yZ8KXanW9TMnpQJmk/GK/pkTUPcv9klDPOCbykcAAAAASUVORK5CYII=;" vertex="1" parent="BnOOSWI3Pid4ku8t8Snk-18">
          <mxGeometry x="90" y="16.92" width="53.08" height="53.08" as="geometry" />
        </mxCell>
        <mxCell id="BnOOSWI3Pid4ku8t8Snk-31" style="edgeStyle=orthogonalEdgeStyle;rounded=0;orthogonalLoop=1;jettySize=auto;html=1;exitX=0;exitY=0.5;exitDx=0;exitDy=0;entryX=1;entryY=0.385;entryDx=0;entryDy=0;entryPerimeter=0;fontSize=9;" edge="1" parent="1" source="BnOOSWI3Pid4ku8t8Snk-29" target="BnOOSWI3Pid4ku8t8Snk-19">
          <mxGeometry relative="1" as="geometry" />
        </mxCell>
        <mxCell id="BnOOSWI3Pid4ku8t8Snk-32" value="Key mit Client austauschen" style="edgeLabel;html=1;align=center;verticalAlign=middle;resizable=0;points=[];fontSize=9;" vertex="1" connectable="0" parent="BnOOSWI3Pid4ku8t8Snk-31">
          <mxGeometry x="-0.1843" y="2" relative="1" as="geometry">
            <mxPoint as="offset" />
          </mxGeometry>
        </mxCell>
        <mxCell id="BnOOSWI3Pid4ku8t8Snk-29" value="Client-Key erzeugen und speichern" style="shape=process;whiteSpace=wrap;html=1;backgroundOutline=1;align=left;" vertex="1" parent="1">
          <mxGeometry x="620" y="860" width="130" height="90" as="geometry" />
        </mxCell>
      </root>
    </mxGraphModel>
  </diagram>
</mxfile>
